<svg id="Capa_1" enable-background="new 0 0 512 512" height="512" viewBox="0 0 512 512" width="512" xmlns="http://www.w3.org/2000/svg"><g><path d="m436.406 360.999c-5.522 0-10 4.477-10 10v19.889c0 55.753-45.358 101.112-101.111 101.112s-101.11-45.358-101.11-101.112v-119.779c0-52.379 40.035-95.579 91.11-100.617v21.226c-11.639 4.128-20 15.244-20 28.28v22.222c0 13.037 8.361 24.152 20 28.28v60.498c0 5.523 4.478 10 10 10s10-4.477 10-10v-60.498c11.639-4.128 20-15.244 20-28.28v-22.222c0-13.036-8.361-24.152-20-28.28v-21.226c51.076 5.037 91.111 48.238 91.111 100.618v19.889c0 5.523 4.478 10 10 10s10-4.477 10-10v-19.889c0-63.414-48.991-115.594-111.111-120.696v-38.062c0-61.951-50.401-112.352-112.351-112.352s-112.35 50.401-112.35 112.351v138.296c-25.567 4.718-45 27.161-45 54.073 0 5.523 4.478 10 10 10h15v30c0 5.523 4.478 10 10 10h40c5.523 0 10-4.477 10-10v-30h15c5.523 0 10-4.477 10-10 0-26.911-19.433-49.355-45-54.073v-138.296c0-50.923 41.429-92.351 92.351-92.351s92.351 41.428 92.351 92.351v38.062c-62.119 5.102-111.11 57.282-111.11 120.696v119.779c0 66.781 54.33 121.112 121.111 121.112 66.78 0 121.11-54.331 121.11-121.112v-19.889c-.001-5.523-4.478-10-10.001-10zm-305.812-26.278h-20v-20h20zm23.545-40.001h-67.09c4.313-14.442 17.72-25 33.545-25s29.231 10.559 33.545 25zm181.156-52.5c0 5.514-4.486 10-10 10s-10-4.486-10-10v-22.222c0-5.514 4.486-10 10-10s10 4.486 10 10z"/><circle cx="436.406" cy="330.999" r="10"/></g></svg>