<svg id="Capa_1" height="512" viewBox="0 0 509.833 509.833" width="512" xmlns="http://www.w3.org/2000/svg"><circle cx="306.043" cy="423.967" r="3.122"/><path d="M285.916 420.845a3.122 3.122 0 100 6.245 3.122 3.122 0 000-6.245zm10.442 9.684a3.122 3.122 0 100 6.245 3.122 3.122 0 000-6.245zm-30.57-9.684a3.122 3.122 0 100 6.245 3.122 3.122 0 000-6.245zm10.443 9.684a3.122 3.122 0 100 6.245 3.122 3.122 0 000-6.245zm-30.571-9.684a3.122 3.122 0 100 6.243 3.122 3.122 0 000-6.243zm10.443 9.684a3.122 3.122 0 100 6.245 3.122 3.122 0 000-6.245zm-30.57-9.684a3.122 3.122 0 100 6.245 3.122 3.122 0 000-6.245zm10.442 9.684a3.122 3.122 0 100 6.245 3.122 3.122 0 000-6.245z"/><circle cx="205.405" cy="423.967" r="3.122"/><path d="M215.848 430.529a3.122 3.122 0 100 6.245 3.122 3.122 0 000-6.245z"/><path d="M294.636 258.026h-79.439c-22.33 0-40.497 18.167-40.497 40.496V407.93c0 22.33 18.167 40.496 40.497 40.496h79.439c22.33 0 40.496-18.167 40.496-40.496V298.522c0-22.329-18.166-40.496-40.496-40.496zm23.026 172.737a3.105 3.105 0 00-1.175-.233 3.122 3.122 0 00-3.122 3.122c0 .238.032.467.082.69a32.258 32.258 0 01-18.81 6.034h-79.439a32.247 32.247 0 01-17.01-4.831 3.094 3.094 0 00.654-1.893 3.122 3.122 0 00-3.122-3.122 3.11 3.11 0 00-2.488 1.254 32.698 32.698 0 01-5.269-6.25c.27-.462.436-.993.436-1.566a3.114 3.114 0 00-2.952-3.105 32.257 32.257 0 01-2.696-12.932v-2.27a3.11 3.11 0 002.526 1.3c.494 0 .955-.125 1.37-.329a40.823 40.823 0 006.438 5.232 3.098 3.098 0 00-.487 1.661 3.122 3.122 0 003.122 3.122 3.114 3.114 0 002.812-1.788 40.238 40.238 0 0016.665 3.6h79.439a40.22 40.22 0 0018.759-4.624 3.111 3.111 0 003.091 2.811 3.122 3.122 0 003.122-3.122c0-1.11-.583-2.078-1.455-2.632a40.868 40.868 0 005.722-4.952 3.105 3.105 0 002.296 1.021c.319 0 .62-.062.91-.15v1.12c0 8.895-3.601 16.965-9.419 22.832zm9.419-52.801c0 17.89-14.555 32.445-32.445 32.445h-79.439c-17.891 0-32.446-14.555-32.446-32.445v-79.439c0-17.89 14.555-32.445 32.446-32.445h79.439c17.89 0 32.445 14.555 32.445 32.445zm-30.723-149.717a3.122 3.122 0 100 6.245 3.122 3.122 0 000-6.245zm-20.127 0a3.122 3.122 0 100 6.245 3.122 3.122 0 000-6.245zm-20.128 0a3.122 3.122 0 100 6.245 3.122 3.122 0 000-6.245zm-20.128 0a3.122 3.122 0 100 6.245 3.122 3.122 0 000-6.245zm-20.127 0a3.122 3.122 0 100 6.245 3.122 3.122 0 000-6.245zm-20.128 0a3.122 3.122 0 100 6.245 3.122 3.122 0 000-6.245z"/><path d="M294.636 61.408h-79.439c-22.33 0-40.497 18.167-40.497 40.496v109.407c0 22.33 18.167 40.497 40.497 40.497h79.439c22.33 0 40.496-18.166 40.496-40.497V101.904c0-22.329-18.166-40.496-40.496-40.496zm24.872 170.709c.059-.241.1-.489.1-.748a3.122 3.122 0 10-3.122 3.122c.357 0 .694-.072 1.013-.183a32.584 32.584 0 01-8.648 6.162 3.114 3.114 0 00-5.93 1.341c0 .291.053.567.127.834a32.344 32.344 0 01-8.412 1.113h-6.296c.43-.535.699-1.206.699-1.946a3.122 3.122 0 00-6.244 0c0 .74.268 1.411.698 1.946h-15.281c.43-.535.698-1.206.698-1.946a3.122 3.122 0 00-6.244 0c0 .74.268 1.411.699 1.946h-15.281c.43-.535.699-1.206.699-1.946a3.122 3.122 0 00-6.244 0c0 .74.268 1.411.699 1.946h-15.281c.43-.535.699-1.206.699-1.946a3.122 3.122 0 00-6.244 0c0 .74.268 1.411.699 1.946h-7.912c-2.372 0-4.682-.263-6.91-.748a3.122 3.122 0 00-2.882-4.32 3.119 3.119 0 00-3.036 2.419 32.633 32.633 0 01-16.686-16.343 3.113 3.113 0 002.716-3.081 3.123 3.123 0 00-3.122-3.123 3.09 3.09 0 00-1.595.452 32.374 32.374 0 01-.931-7.701v-5.761a40.654 40.654 0 0020.094 14.352 3.105 3.105 0 00-.562 1.781 3.122 3.122 0 006.244 0c0-.142-.023-.277-.042-.414 2.185.366 4.425.569 6.712.569h7.229c.083 1.65 1.436 2.966 3.107 2.966s3.023-1.316 3.106-2.966h13.915a3.114 3.114 0 003.107 2.966 3.114 3.114 0 003.106-2.966h13.915c.083 1.65 1.435 2.966 3.106 2.966s3.023-1.316 3.106-2.966h13.915c.083 1.65 1.436 2.966 3.106 2.966s3.023-1.316 3.106-2.966h5.614c2.875 0 5.675-.318 8.382-.89-.057.237-.096.48-.096.734a3.122 3.122 0 105.326-2.211 40.674 40.674 0 0018.833-13.921v5.76c0 2.496-.293 4.923-.829 7.258-.028 0-.053-.008-.081-.008a3.123 3.123 0 00-3.122 3.123c0 1.06.53 1.992 1.337 2.556a32.575 32.575 0 01-4.879 7.876zm7.573-50.775c0 17.89-14.555 32.445-32.445 32.445h-79.439c-17.891 0-32.446-14.555-32.446-32.445v-79.439c0-17.891 14.555-32.445 32.446-32.445h79.439c17.89 0 32.445 14.555 32.445 32.445zM124.894 420.845a3.122 3.122 0 100 6.245 3.122 3.122 0 000-6.245zm-20.128 0a3.122 3.122 0 100 6.245 3.122 3.122 0 000-6.245zm10.443 9.684a3.122 3.122 0 100 6.245 3.122 3.122 0 000-6.245zm-30.57-9.684a3.122 3.122 0 100 6.245 3.122 3.122 0 000-6.245zm10.442 9.684a3.122 3.122 0 100 6.245 3.122 3.122 0 000-6.245zm-30.57-9.684a3.122 3.122 0 100 6.245 3.122 3.122 0 000-6.245zm10.443 9.684a3.122 3.122 0 100 6.245 3.122 3.122 0 000-6.245zm-30.571-9.684a3.122 3.122 0 100 6.245 3.122 3.122 0 000-6.245zm10.443 9.684a3.122 3.122 0 100 6.245 3.122 3.122 0 000-6.245z"/><circle cx="24.256" cy="423.967" r="3.122"/><path d="M34.699 430.529a3.122 3.122 0 100 6.245 3.122 3.122 0 000-6.245zm-20.128-20.127a3.123 3.123 0 10.001 6.245 3.123 3.123 0 00-.001-6.245z"/><path d="M119.935 258.026H40.496C18.166 258.026 0 276.193 0 298.522V407.93c0 22.33 18.166 40.496 40.496 40.496h79.439c22.33 0 40.497-18.167 40.497-40.496V298.522c0-22.329-18.167-40.496-40.497-40.496zm32.446 149.904a32.233 32.233 0 01-4.24 16.005 3.12 3.12 0 00-6.241.031 3.122 3.122 0 003.122 3.122 3.1 3.1 0 001.274-.277 32.726 32.726 0 01-8.023 7.866c.113-.323.187-.665.187-1.026a3.122 3.122 0 00-6.244 0 3.114 3.114 0 002.643 3.074 32.23 32.23 0 01-14.923 3.65h-79.44c-17.89 0-32.445-14.555-32.445-32.445v-5.761c7.391 9.882 19.184 16.289 32.445 16.289h79.439c13.261 0 25.054-6.408 32.446-16.289zm0-29.968c0 17.89-14.555 32.445-32.446 32.445H40.496c-17.89 0-32.445-14.555-32.445-32.445v-79.439c0-17.89 14.555-32.445 32.445-32.445h79.439c17.891 0 32.446 14.555 32.446 32.445zm342.132 36.569a3.122 3.122 0 106.245 0 3.122 3.122 0 00-6.245 0zm-7.32 7.32a3.122 3.122 0 100 6.245 3.122 3.122 0 000-6.245zm-20.128 0a3.122 3.122 0 100 6.245 3.122 3.122 0 000-6.245zm10.443 9.685a3.123 3.123 0 10.001 6.245 3.123 3.123 0 00-.001-6.245zm-30.571-9.685a3.122 3.122 0 100 6.245 3.122 3.122 0 000-6.245zm10.443 9.685a3.123 3.123 0 10.001 6.245 3.123 3.123 0 00-.001-6.245zm-30.57-9.685a3.122 3.122 0 100 6.245 3.122 3.122 0 000-6.245zm10.442 9.685a3.123 3.123 0 10.001 6.245 3.123 3.123 0 00-.001-6.245zm-30.57-9.685a3.122 3.122 0 100 6.245 3.122 3.122 0 000-6.245zm10.443 9.685a3.123 3.123 0 10.001 6.245 3.123 3.123 0 00-.001-6.245zm-30.571-9.685a3.122 3.122 0 100 6.245 3.122 3.122 0 000-6.245zm10.443 9.685a3.123 3.123 0 10.001 6.245 3.123 3.123 0 00-.001-6.245zm-30.57-9.685a3.122 3.122 0 100 6.245 3.122 3.122 0 000-6.245z"/><path d="M469.336 258.026h-79.439c-22.33 0-40.496 18.167-40.496 40.496V407.93c0 22.33 18.166 40.496 40.496 40.496h79.439c22.33 0 40.497-18.167 40.497-40.496V298.522c0-22.329-18.167-40.496-40.497-40.496zm32.446 149.904c0 17.89-14.555 32.445-32.446 32.445h-79.439c-4.531 0-8.846-.937-12.767-2.622a3.112 3.112 0 002.861-3.096 3.123 3.123 0 00-6.244 0 3.1 3.1 0 00.498 1.681c-7.449-4.121-13.108-11.086-15.516-19.419a3.098 3.098 0 001.134-2.389c0-1.402-.93-2.575-2.203-2.969a32.497 32.497 0 01-.208-3.631v-5.761c7.391 9.882 19.184 16.289 32.445 16.289h79.439c13.262 0 25.054-6.408 32.446-16.289zm0-29.968c0 17.89-14.555 32.445-32.446 32.445h-79.439c-17.89 0-32.445-14.555-32.445-32.445v-79.439c0-17.89 14.555-32.445 32.445-32.445h79.439c17.891 0 32.446 14.555 32.446 32.445zM85.454 305.266a5.478 5.478 0 00-5.128-3.516h-.005c-2.24.002-4.235 1.343-5.119 3.507l-24.382 64.02a4.026 4.026 0 007.524 2.866l5.085-13.352h33.619l5.034 13.34a4.023 4.023 0 005.187 2.345 4.024 4.024 0 002.345-5.187zm-18.958 45.473l13.82-36.289 13.695 36.289z"/><path d="M425.817 302.71H407.97a4.023 4.023 0 00-4.025 4.034s.046 24.244.046 31.429c0 8.756.082 31.59.082 31.59a4.027 4.027 0 004.025 4.011h.015c.133 0 13.239-.051 18.298-.139 17.003-.297 28.879-14.852 28.879-35.393-.001-21.253-11.845-35.532-29.473-35.532zm.452 62.875c-3.241.057-9.863.098-14.159.12-.023-6.953-.068-21.074-.068-27.532 0-5.359-.025-20.203-.038-27.412h13.813c15.794 0 21.421 14.196 21.421 27.481 0 15.884-8.623 27.127-20.969 27.343zm-162.776-30.608c-8.662-3.195-16.672-6.69-18.331-7.421-2.722-1.901-4.055-5.007-3.573-8.368.575-4.004 3.578-7.196 8.034-8.538 11.387-3.428 21.5 4.765 21.651 4.891a4.026 4.026 0 005.171-6.172c-.543-.457-13.503-11.137-29.143-6.428-7.423 2.236-12.665 8.023-13.681 15.103-.94 6.545 1.892 12.837 7.391 16.422.178.116.365.218.558.304.371.166 9.193 4.093 19.137 7.761 8.06 2.973 12.115 7.856 11.125 13.397-.931 5.214-6.634 10.755-15.37 10.755-7.589 0-14.934-3.104-19.645-8.303a4.025 4.025 0 10-5.966 5.406c6.212 6.855 15.787 10.948 25.611 10.948 11.51 0 21.525-7.477 23.296-17.391 1.324-7.423-2.252-17.197-16.265-22.366zm38.389-229.581a4.03 4.03 0 00-5.13 2.467l-19.056 54.368-18.705-54.831c-.024-.07-.064-.13-.091-.198a4.157 4.157 0 00-.176-.384 4.323 4.323 0 00-.427-.645 4.01 4.01 0 00-1.575-1.175c-.066-.027-.123-.066-.191-.09-.046-.016-.094-.02-.14-.035a4.234 4.234 0 00-.431-.106c-.117-.023-.234-.047-.351-.06a3.96 3.96 0 00-.409-.017c-.13-.001-.259-.002-.388.011-.123.011-.244.034-.367.057a4.057 4.057 0 00-.423.099c-.047.014-.095.017-.142.033-.068.023-.126.062-.192.088a4.001 4.001 0 00-.394.18 4.093 4.093 0 00-1.197.974c-.083.1-.159.202-.232.31a3.894 3.894 0 00-.384.712c-.028.067-.068.126-.092.194l-19.607 55.014-18.693-54.398a4.025 4.025 0 00-7.614 2.616l22.431 65.276a4.025 4.025 0 003.785 2.717h.023a4.026 4.026 0 003.792-2.674l19.592-54.975 18.736 54.923a4.026 4.026 0 003.793 2.726h.017a4.024 4.024 0 003.798-2.694l22.907-65.353a4.025 4.025 0 00-2.467-5.13z"/></svg>