<svg version="1.1" id="Capa_1" xmlns="http://www.w3.org/2000/svg" x="0" y="0" width="35" height="35" xml:space="preserve"><path d="M25.302 0H9.698a2.37 2.37 0 00-2.364 2.364v30.271A2.371 2.371 0 009.698 35h15.604a2.37 2.37 0 002.364-2.364V2.364A2.37 2.37 0 0025.302 0zM15.004 1.704h4.992a.286.286 0 010 .573h-4.992a.286.286 0 110-.573zM17.5 33.818a1.183 1.183 0 11.001-2.365 1.183 1.183 0 01-.001 2.365zm8.521-3.193H8.979V3.749h17.042v26.876zM17.5 22.689a8.415 8.415 0 01-5.99-2.48.596.596 0 010-.839.596.596 0 01.84 0 7.234 7.234 0 005.15 2.134 7.234 7.234 0 005.15-2.134.596.596 0 01.84 0c.23.231.23.606 0 .839a8.41 8.41 0 01-5.99 2.48zm-1.336-9.677a1.44 1.44 0 11-2.878-.002 1.44 1.44 0 012.878.002zm5.549 0a1.439 1.439 0 11-2.878-.002 1.439 1.439 0 012.878.002z"/></svg>