<svg data-name="Слой 1" id="Слой_1" viewBox="0 0 96 96" xmlns="http://www.w3.org/2000/svg"><defs><style>.cls-3{fill:none;stroke:#fff;stroke-linecap:round;stroke-linejoin:round;stroke-width:3px}</style></defs><path d="M92 48v.13A44 44 0 1147.87 4H48c1.06 0 2.11 0 3.16.12a42.89 42.89 0 015.12.67 43.39 43.39 0 018.1 2.37 44.13 44.13 0 0124.41 24.31 43.22 43.22 0 012.43 8.24 44 44 0 01.67 5.17C92 45.92 92 47 92 48z" fill="#cf5915"/><path d="M91 44.5v.12A39.53 39.53 0 1151.38 5h.12c1 0 1.89 0 2.84.11a38.38 38.38 0 014.59.6 39.33 39.33 0 015.45 1.45 44.13 44.13 0 0124.41 24.31 38.33 38.33 0 011.51 5.59 39.22 39.22 0 01.6 4.64c.1.93.1 1.87.1 2.8z" fill="#ff8721"/><path class="cls-3" d="M74.66 21.93a36.47 36.47 0 013 3.52M58 12a38.11 38.11 0 0111.78 5.76"/><path d="M92 48v.13A44 44 0 1147.87 4H48c1.06 0 2.11 0 3.16.12a42.89 42.89 0 015.12.67 43.39 43.39 0 018.1 2.37 44.13 44.13 0 0124.41 24.31 43.22 43.22 0 012.43 8.24 44 44 0 01.67 5.17C92 45.92 92 47 92 48z" fill="#1d78b5"/><path d="M91 44.5v.12A39.53 39.53 0 1151.38 5h.12c1 0 1.89 0 2.84.11a38.38 38.38 0 014.59.6 39.33 39.33 0 015.45 1.45 44.13 44.13 0 0124.41 24.31 38.33 38.33 0 011.51 5.59 39.22 39.22 0 01.6 4.64c.1.93.1 1.87.1 2.8z" fill="#2fa8df"/><path class="cls-3" d="M74.66 21.93a36.47 36.47 0 013 3.52M58 12a38.11 38.11 0 0111.78 5.76"/><path d="M65 29.24L24.73 44.78c-1.64.66-1.84 2.65-.17 3.22l10.2 3.6 23.92-15.11a.45.45 0 01.54.71L40.4 54.11l-1.27 10a.74.74 0 001.26.62l6-5.94 10.08 7.83a2.35 2.35 0 003.33-1.42L67 30.85a1.43 1.43 0 00-2-1.61z" fill="#fff"/></svg>