<svg id="Capa_1" enable-background="new 0 0 512 512" height="512" viewBox="0 0 512 512" width="512"><g><g><path d="m364 173.686-108-55.328h-.001l-197.999 96.565v165.85c0 24.853 20.147 45 45 45h54 252c24.853 0 45-20.147 45-45 0-2.567 0-159.472 0-162.044z" fill="#efedff"/><path d="m255.999 159.157v-40.799l-197.999 96.565v165.85c0 24.853 20.147 45 45 45h54v-75c0-75.904 36.644-143.637 98.999-191.616z" fill="#d4d4ff"/><g><path d="m485.458 196.891-214.06-107.028-44.399 24 29 45.294 198.66 99.331c17.01 8.506 37.693 1.611 46.198-15.398 8.505-17.011 1.611-37.694-15.399-46.199z" fill="#ff8e9e"/><path d="m271.398 89.863c-4.847-2.423-10.033-3.635-15.399-3.635-5.276 0-10.552 1.212-15.399 3.635l-214.058 107.028c-17.01 8.505-23.904 29.188-15.399 46.198 8.505 17.008 29.188 23.904 46.198 15.398l198.659-99.331v-29.962c-.001-14.58 5.498-28.625 15.398-39.331z" fill="#ea5b70"/></g></g><g><path d="m103 425.773h34l20-37.5-20-37.5h-79v30c0 24.853 20.147 45 45 45z" fill="#ea5b70"/><path d="m137 350.772v75.001h119l20-37.5-20-37.501z" fill="#fce3a0"/><path d="m137 350.772h20v75h-20z" fill="#ffce71"/><path d="m256 425.773h119l20-37.5-20-37.501h-119z" fill="#88c5fd"/><path d="m375 425.773h34c24.853 0 45-20.147 45-45 0-1.6 0-12.879 0-30h-79z" fill="#c9aaf2"/></g><g><path d="m424 350.772v-47.614c0-8.284-6.716-15-15-15h-306c-8.284 0-15 6.716-15 15v47.614c0 8.284 6.716 15 15 15h306c8.284 0 15-6.715 15-15z" fill="#7ce3ff"/><path d="m103 288.158c-8.284 0-15 6.716-15 15v47.614c0 8.284 6.716 15 15 15h54v-15c0-21.625 2.985-42.583 8.681-62.614z" fill="#55dafe"/></g><g><path d="m275.973 274.073c-21.935-6.76-46.671-2.184-64.973 14.085v137.614h40 50v-137.614c-7.435-6.609-15.995-11.302-25.027-14.085z" fill="#d6948c"/><path d="m275.973 274.073c-21.935-6.76-46.671-2.184-64.973 14.085v137.614h40v-117.598c0-15.492 9.922-29.384 24.704-34.017.09-.028.18-.056.269-.084z" fill="#ce857a"/></g><g fill="#ffb5c0"><path d="m180.798 232.18c-13.807 0-25 8.913-25 19.909 0 10.995 11.193 19.908 25 19.908s25-8.913 25-19.908c0-10.996-11.193-19.909-25-19.909z"/><path d="m331.202 232.18c-13.807 0-25 8.913-25 19.909 0 10.995 11.193 19.908 25 19.908s25-8.913 25-19.908c0-10.996-11.193-19.909-25-19.909z"/></g><g><path d="m488.812 190.183-214.06-107.028c-12.168-6.083-26.068-5.719-37.506 0l-106.206 53.102c-3.705 1.853-5.207 6.357-3.354 10.063 1.852 3.704 6.356 5.206 10.062 3.354l106.206-53.103c7.321-3.658 16.246-3.921 24.091 0l214.06 107.028c9.188 4.594 14.896 13.834 14.896 24.116 0 19.966-21.075 33.024-38.985 24.064l-198.661-99.331c-2.111-1.057-4.596-1.057-6.708 0l-198.003 99.003c-19.519 9.766-39.644-4.528-39.644-23.734 0-10.282 5.708-19.523 14.896-24.118l81.019-40.51c3.705-1.853 5.207-6.357 3.354-10.063s-6.356-5.205-10.062-3.354l-81.019 40.51c-14.303 7.153-23.188 21.535-23.188 37.535 0 22.683 18.273 41.913 41.968 41.913 2.897 0 5.744-.31 8.532-.892v112.034c0 28.948 23.551 52.5 52.5 52.5h306c28.948 0 52.5-23.552 52.5-52.5v-61.957c0-4.143-3.357-7.5-7.5-7.5s-7.5 3.357-7.5 7.5v24.457h-15v-40.114c0-12.406-10.094-22.5-22.5-22.5h-105.251c-27.717-22.788-67.78-22.788-95.497 0h-105.252c-12.407 0-22.5 10.094-22.5 22.5v40.114h-15v-80.479l190.5-95.25 190.5 95.25v26.022c0 4.143 3.357 7.5 7.5 7.5s7.5-3.357 7.5-7.5v-20.075c2.788.582 5.635.892 8.533.892 23.728 0 41.967-19.269 41.967-41.916 0-16.002-8.885-30.382-23.188-37.533zm-58.602 168.089h16.29v22.5c0 20.678-16.822 37.5-37.5 37.5h-26.5v-45h26.5c9.777 0 18.114-6.271 21.21-15zm-121.71-62.614h53.479l-14.376 14.375c-2.909 2.931-2.935 7.654 0 10.61 2.929 2.928 7.666 2.945 10.61 0l24.985-24.985h25.802c4.136 0 7.5 3.364 7.5 7.5v47.614c0 4.136-3.364 7.5-7.5 7.5h-45.996l15.078-15.08c2.894-2.873 2.977-7.644 0-10.6-2.924-2.946-7.694-2.926-10.6 0l-25.682 25.679h-33.3zm0 77.614h59v45h-59zm-90-81.628c21.914-17.453 53.086-17.454 75 .001v126.627h-75zm-15 126.628h-59v-45h59zm-108-115.114c0-4.136 3.364-7.5 7.5-7.5h45.979l-14.376 14.375c-2.909 2.931-2.935 7.654 0 10.61 2.929 2.928 7.666 2.945 10.61 0l24.985-24.985h33.302v62.614h-53.496l15.078-15.08c2.894-2.873 2.977-7.644 0-10.6-2.924-2.946-7.694-2.926-10.6 0l-25.682 25.679h-25.8c-4.136 0-7.5-3.364-7.5-7.5zm-13.71 55.114c3.096 8.729 11.432 15 21.21 15h26.5v45h-26.5c-20.678 0-37.5-16.822-37.5-37.5v-22.5z"/><path d="m271 342.465c-4.142 0-7.5 3.362-7.5 7.505s3.358 7.5 7.5 7.5c4.114 0 7.5-3.325 7.5-7.511 0-4.142-3.358-7.494-7.5-7.494z"/><path d="m186.051 223.585v12c0 4.143 3.357 7.5 7.5 7.5s7.5-3.357 7.5-7.5v-12c0-4.143-3.357-7.5-7.5-7.5s-7.5 3.357-7.5 7.5z"/><path d="m310.948 223.585v12c0 4.143 3.357 7.5 7.5 7.5s7.5-3.357 7.5-7.5v-12c0-4.143-3.357-7.5-7.5-7.5s-7.5 3.357-7.5 7.5z"/><path d="m266.81 230.3c-5.726 6.569-15.898 6.563-21.619 0-2.721-3.124-7.459-3.448-10.581-.728-3.123 2.721-3.449 7.459-.728 10.581 11.702 13.431 32.545 13.419 44.236 0 2.722-3.122 2.396-7.86-.728-10.581-3.121-2.721-7.861-2.397-10.58.728z"/><path d="m118.702 344.053c4.097 0 7.49-3.314 7.49-7.5 0-4.149-3.349-7.5-7.5-7.5-4.139 0-7.49 3.352-7.49 7.5s3.35 7.5 7.5 7.5z"/><circle cx="181.002" cy="316.683" r="7.5"/><path d="m331.692 329.053c-4.139 0-7.49 3.352-7.49 7.5s3.35 7.5 7.5 7.5c4.097 0 7.49-3.314 7.49-7.5 0-4.149-3.349-7.5-7.5-7.5z"/><circle cx="394.002" cy="316.683" r="7.5"/></g></g></svg>