<svg id="Capa_1" height="512" width="512"><path d="M364 173.686l-108-55.328h-.001L58 214.923v165.85c0 24.853 20.147 45 45 45h306c24.853 0 45-20.147 45-45V218.729z" fill="#efedff"/><path d="M255.999 159.157v-40.799L58 214.923v165.85c0 24.853 20.147 45 45 45h54v-75c0-75.904 36.644-143.637 98.999-191.616z" fill="#d4d4ff"/><path d="M485.458 196.891L271.398 89.863l-44.399 24 29 45.294 198.66 99.331c17.01 8.506 37.693 1.611 46.198-15.398 8.505-17.011 1.611-37.694-15.399-46.199z" fill="#ff8e9e"/><path d="M271.398 89.863a34.147 34.147 0 00-15.399-3.635 34.426 34.426 0 00-15.399 3.635L26.542 196.891c-17.01 8.505-23.904 29.188-15.399 46.198 8.505 17.008 29.188 23.904 46.198 15.398L256 159.156v-29.962a57.927 57.927 0 0115.398-39.331zM103 425.773h34l20-37.5-20-37.5H58v30c0 24.853 20.147 45 45 45z" fill="#ea5b70"/><path d="M137 350.772v75.001h119l20-37.5-20-37.501z" fill="#fce3a0"/><path d="M137 350.772h20v75h-20z" fill="#ffce71"/><path d="M256 425.773h119l20-37.5-20-37.501H256z" fill="#88c5fd"/><path d="M375 425.773h34c24.853 0 45-20.147 45-45v-30h-79z" fill="#c9aaf2"/><path d="M424 350.772v-47.614c0-8.284-6.716-15-15-15H103c-8.284 0-15 6.716-15 15v47.614c0 8.284 6.716 15 15 15h306c8.284 0 15-6.715 15-15z" fill="#7ce3ff"/><path d="M103 288.158c-8.284 0-15 6.716-15 15v47.614c0 8.284 6.716 15 15 15h54v-15c0-21.625 2.985-42.583 8.681-62.614z" fill="#55dafe"/><path d="M275.973 274.073c-21.935-6.76-46.671-2.184-64.973 14.085v137.614h90V288.158a67.529 67.529 0 00-25.027-14.085z" fill="#d6948c"/><path d="M275.973 274.073c-21.935-6.76-46.671-2.184-64.973 14.085v137.614h40V308.174c0-15.492 9.922-29.384 24.704-34.017l.269-.084z" fill="#ce857a"/><path d="M180.798 232.18c-13.807 0-25 8.913-25 19.909 0 10.995 11.193 19.908 25 19.908s25-8.913 25-19.908c0-10.996-11.193-19.909-25-19.909zm150.404 0c-13.807 0-25 8.913-25 19.909 0 10.995 11.193 19.908 25 19.908s25-8.913 25-19.908c0-10.996-11.193-19.909-25-19.909z" fill="#ffb5c0"/><path d="M488.812 190.183L274.752 83.155c-12.168-6.083-26.068-5.719-37.506 0L131.04 136.257a7.5 7.5 0 106.708 13.417l106.206-53.103c7.321-3.658 16.246-3.921 24.091 0l214.06 107.028c9.188 4.594 14.896 13.834 14.896 24.116 0 19.966-21.075 33.024-38.985 24.064l-198.661-99.331a7.491 7.491 0 00-6.708 0L54.644 251.451C35.125 261.217 15 246.923 15 227.717c0-10.282 5.708-19.523 14.896-24.118l81.019-40.51a7.5 7.5 0 10-6.708-13.417l-81.019 40.51C8.885 197.335 0 211.717 0 227.717 0 250.4 18.273 269.63 41.968 269.63c2.897 0 5.744-.31 8.532-.892v112.034c0 28.948 23.551 52.5 52.5 52.5h306c28.948 0 52.5-23.552 52.5-52.5v-61.957c0-4.143-3.357-7.5-7.5-7.5s-7.5 3.357-7.5 7.5v24.457h-15v-40.114c0-12.406-10.094-22.5-22.5-22.5H303.749c-27.717-22.788-67.78-22.788-95.497 0H103c-12.407 0-22.5 10.094-22.5 22.5v40.114h-15v-80.479l190.5-95.25 190.5 95.25v26.022c0 4.143 3.357 7.5 7.5 7.5s7.5-3.357 7.5-7.5V268.74c2.788.582 5.635.892 8.533.892 23.728 0 41.967-19.269 41.967-41.916 0-16.002-8.885-30.382-23.188-37.533zM430.21 358.272h16.29v22.5c0 20.678-16.822 37.5-37.5 37.5h-26.5v-45H409c9.777 0 18.114-6.271 21.21-15zM308.5 295.658h53.479l-14.376 14.375a7.517 7.517 0 000 10.61 7.49 7.49 0 0010.61 0l24.985-24.985H409c4.136 0 7.5 3.364 7.5 7.5v47.614c0 4.136-3.364 7.5-7.5 7.5h-45.996l15.078-15.08c2.894-2.873 2.977-7.644 0-10.6-2.924-2.946-7.694-2.926-10.6 0L341.8 358.271h-33.3zm0 77.614h59v45h-59zm-90-81.628c21.914-17.453 53.086-17.454 75 .001v126.627h-75zm-15 126.628h-59v-45h59zm-108-115.114c0-4.136 3.364-7.5 7.5-7.5h45.979l-14.376 14.375a7.517 7.517 0 000 10.61 7.49 7.49 0 0010.61 0l24.985-24.985H203.5v62.614h-53.496l15.078-15.08c2.894-2.873 2.977-7.644 0-10.6-2.924-2.946-7.694-2.926-10.6 0L128.8 358.271H103c-4.136 0-7.5-3.364-7.5-7.5zm-13.71 55.114c3.096 8.729 11.432 15 21.21 15h26.5v45H103c-20.678 0-37.5-16.822-37.5-37.5v-22.5z"/><path d="M271 342.465c-4.142 0-7.5 3.362-7.5 7.505s3.358 7.5 7.5 7.5a7.5 7.5 0 007.5-7.511 7.495 7.495 0 00-7.5-7.494zm-84.949-118.88v12c0 4.143 3.357 7.5 7.5 7.5s7.5-3.357 7.5-7.5v-12c0-4.143-3.357-7.5-7.5-7.5s-7.5 3.357-7.5 7.5zm124.897 0v12c0 4.143 3.357 7.5 7.5 7.5s7.5-3.357 7.5-7.5v-12c0-4.143-3.357-7.5-7.5-7.5s-7.5 3.357-7.5 7.5zM266.81 230.3c-5.726 6.569-15.898 6.563-21.619 0a7.5 7.5 0 10-11.309 9.853c11.702 13.431 32.545 13.419 44.236 0a7.498 7.498 0 00-.728-10.581 7.496 7.496 0 00-10.58.728zM118.702 344.053a7.492 7.492 0 007.49-7.5 7.49 7.49 0 00-7.5-7.5c-4.139 0-7.49 3.352-7.49 7.5s3.35 7.5 7.5 7.5z"/><circle cx="181.002" cy="316.683" r="7.5"/><path d="M331.692 329.053c-4.139 0-7.49 3.352-7.49 7.5s3.35 7.5 7.5 7.5a7.492 7.492 0 007.49-7.5 7.49 7.49 0 00-7.5-7.5z"/><circle cx="394.002" cy="316.683" r="7.5"/></svg>