<svg version="1.0" xmlns="http://www.w3.org/2000/svg" width="834.667" height="681.333" viewBox="0 0 626 511"><path d="M304 76.5c-8.2 3.7-12.8 11-14.2 22.4-1.1 9-2.5 11.4-8.5 14.9-10.8 6.3-11.9 9.1-8.4 21.4 2.3 8 1.8 11-3.4 20.3-2.1 3.8-3.7 8.2-3.8 10.1-.1 3.6 3.1 8.9 5.3 8.9.6 0 2.4-3.4 3.9-7.5 4-11 5.7-13.7 10.4-17.1 6.4-4.7 19.3-10.9 22.6-10.9 2.5 0 3-.5 3.5-3.4.9-4.5 0-7.9-3.5-14.1-1.8-3.4-3.8-5.4-5.8-6.2-2.4-.8-3.1-1.7-3.1-3.7 0-2.6.9-3 5.8-2.6 1.2.1 2.2-.3 2.2-.8s3.3-4.8 7.4-9.6c4.1-4.7 7.6-9.1 7.8-9.7.2-.7 2.2-.2 5.4 1.4 5.7 2.9 10.4 8.8 10.4 13.1 0 1.6.4 2.5 1 2.1 1.8-1.1 2.3 2.5.7 4.3-.9 1-2.1 4.1-2.8 7-1.1 5.5-4.6 10.7-7.9 11.7-1.6.5-2 1.5-2 5.6 0 3.7.4 4.9 1.5 4.9 2.4 0 16.6 7.4 21.7 11.3l4.6 3.5.6-3.2c.7-3.8.2-5.7-3.1-10.8-3.9-5.9-5.4-12.4-6.2-28.4-1.2-21.5-4.1-27.5-16.3-32.9-7.7-3.5-20.4-4.4-25.8-2zm197.5 174.8c-14.7 35.8-26.9 65.3-27 65.5-.2.2-2.5-6.1-16-43.8-9.2-25.8-9.9-27.4-10.2-26.3-.2.5 5.3 16.7 12.2 35.8 6.9 19.2 12.5 35.6 12.5 36.5 0 1.5-8.5 22.8-9.4 23.8-.2.2-1.4-1.4-2.7-3.5-1.3-2.1-4.5-6.1-7.1-8.8l-4.7-5.1 3.5.4c2.6.3 4.4-.2 6.5-1.7 1.5-1.1 3.7-2.1 4.9-2.1 5.8 0 4-10.8-2.2-13.5-2.3-.9-3.7-2.4-4.6-4.9-.9-2.5-2.4-4-5.2-5.3-3-1.4-4-2.4-4-4.2 0-3.3-3.5-10.2-6.5-13.1-1.3-1.2-4.7-2.9-7.5-3.6-10.1-2.6-20.4 2.7-22 11.5-.9 5.1.1 6.3 1.6 1.9.8-2.6 2-3.7 5.5-5 8.9-3.4 12.1-2 17.2 7.7 3 5.6 3.5 6 6.6 6 3.2 0 3.6.3 4.4 3.5 2 8.2 2 9.1-.2 12.1-2.2 2.9-2.2 5.8 0 8.5.5.6-1.2.1-3.8-1.2-5.6-2.7-8.8-3-10.9-.9-2.8 2.7-9.9 1.5-9.2-1.6.2-1.1-1.4-1.5-7.2-1.9l-7.5-.5 2.1-2c1.1-1.1 2.9-2.5 3.9-3.1 1.8-1 1.8-1.2-.3-3.9-1.2-1.5-2.2-4.2-2.2-5.9 0-1.8-.7-4.1-1.5-5.2-1.5-1.9-1.6-1.8-4 .9-1.4 1.5-2.5 3.7-2.5 4.7 0 1.2-1 2.1-2.9 2.5-2.7.6-5.1 3.8-5.1 6.9 0 .7 1.1 2.3 2.4 3.5 2.4 2.3 2.4 2.3.6 5.4-1.1 1.8-2.2 5.1-2.6 7.3l-.6 4.2 5.6 3.3c6.6 3.9 6.3 2.3 4.3 27.7l-1.3 15.3 5.1 1.5c6.9 2.2 26.3 3 35.3 1.4 7.2-1.2 7.2-1.2 7.2-4.3 0-2.5 1-4.1 4.7-7.6 4.1-3.6 4.2-3.9 1.1-1.7-2.1 1.5-3.8 2.5-3.8 2.2 0-.3.9-2.8 2-5.6s1.6-4.9 1.1-4.6c-.5.4-1.7 2.6-2.7 5.1-.9 2.5-2 4.5-2.4 4.5-.4 0-1.1-3.8-1.6-8.4-.7-6.7-.7-8.2.3-7.4 1.3 1.1 5.2-1.2 8.7-5.1 1.2-1.3 2.2-1.7 2.6-1.1.3.5 15.6-35.5 34-80 18.3-44.6 33.1-81.2 32.8-81.5-.2-.3-12.5 28.9-27.3 64.8zm-195.9.9c-.3 1.3-.7 9.5-.9 18.3-.5 17.8-1.4 21.4-6.6 25.8-2.6 2.1-4.3 2.7-8.2 2.7-2.7 0-6.5-.7-8.4-1.4-3.3-1.4-3.5-1.4-3.9.7-.3 1.2-1.8 31.7-3.5 67.7s-3.4 68.3-3.7 71.7l-.6 6.1 7.3.6c4.1.4 9.4.3 11.9-.1l4.5-.8 10.7-67c5.8-36.9 10.9-69 11.3-71.3.4-2.4.8-4.2 1-4 .4.4 7 88.4 9.5 126.3 1.6 22.9 0 20.5 13.4 20.5h11.4l.6-50.7c.3-28 .9-61.6 1.2-74.8l.6-24-6.6.3c-6.4.4-6.8.2-10-3-4.7-4.7-5.6-8.8-6.3-28.6l-.6-17.2h-11.8c-11.5 0-11.9.1-12.3 2.2zm-110.5 14.5c-1.3 1-3.4 3.4-4.7 5.5-1.4 2.1-2.9 3.6-3.4 3.3-.5-.3-1.4 1.9-2.1 4.9-.9 4.3-.9 6.4 0 9.8 1.2 4.3 1.3 4.4 5.4 4.3 3.9-.1 4.2-.3 7.5-6.3 1.8-3.4 4.6-7.1 6.2-8.2 2.7-2 2.8-2 8.8.1 5.3 1.8 6.2 2.5 7.6 5.7 1.2 3 1.5 3.3 1.5 1.4.1-1.3 1-3.5 2.1-4.9 2.7-3.5 2.6-4.2-1.5-5.9-3-1.2-3.4-1.7-2.5-3.4 1.5-2.9 1.4-3-4.7-3h-5.6l1.9-2.1c1.9-2.2 1.9-2.2-.6-1.4-4 1.3-9.4 2.5-11.3 2.5-1.5 0-1.6-.3-.7-2 1.3-2.5-.4-2.6-3.9-.3zm314.1-1c-1.3.2-2.8 1.5-3.4 2.8-.5 1.2-2.1 2.8-3.4 3.4-1.3.6-3 2.3-3.6 3.7-1.1 2.4-1 2.9 1 4.2 1.3.8 2.2 2.5 2.3 4.1l.1 2.6.9-2.6c.7-1.7 2.2-3 4.7-3.8 2-.7 4.4-1.5 5.2-1.8 1.1-.4 1 0-.4 1.5-1.7 2-1.7 2.2-.2 2.8.9.4 3.4.4 5.5 0 2.9-.4 4-.2 4.5.9.3.8 1.1 1.5 1.8 1.5s2.2 1.7 3.3 3.8c1.8 3.3 2.4 3.7 5.8 3.6 2.2 0 4.2-.5 4.5-1.1.4-.5 1.5-1.2 2.5-1.6 1.9-.7 2.2-2.9.7-5.8-.7-1.3-.7-1.9 0-1.9 1.9 0 1-2-1.4-3.2-1.5-.6-2.6-2.1-2.8-3.6-.6-5.4-18.3-11.5-27.6-9.5zm-406.8 46.1c-9.4 3.3-16.7 11.3-21.5 23.6-1.6 4.3-2.8 8.4-2.5 9.1.5 1.3 10.5 5.5 13 5.5.8 0 1.7-1.2 2-2.6 1.4-5.4 1.7-1.2.7 8.3-1.9 16.4-2.2 18.7-2.6 19.1-.2.3-2.3-1-4.7-2.9-7.1-5.4-7.5-5.7-5.9-3.6.7.9 3.5 3.3 6.1 5.2 4.7 3.4 4.8 3.6 4.3 7.8-.3 2.3-.6 4.3-.7 4.4 0 .1-9.1.9-20.1 1.8-11 1-20.2 1.9-20.4 2.1-.8.7 9.1.3 24.9-1 8.5-.7 15.6-1.2 15.7-1.2.1.1-.3 4.8-.8 10.5-.6 5.6-.8 10.5-.5 10.8.8.8 53.4-2.2 54.2-3 .4-.4-.5-11.8-2-25.5-1.5-13.6-2.8-27.4-2.9-30.6l-.2-5.9 5.2-2.1c2.8-1.2 5.5-2.5 5.9-2.8.8-.9-6.6-13.7-11.2-19.5-2.7-3.3-4.8-4.6-9.8-6.3-5-1.6-7-1.9-8.5-1.1-2.8 1.6-6.7 1.4-8.5-.4-1.8-1.9-2.9-1.9-9.2.3zm24.6 41.1v11l-5.5 2.6-5.4 2.7-5.6-2.8-5.5-2.8V342h22v10.9zm366.1 37.5c-1.2 10-2.4 18.9-2.7 19.9-.5 1.6.3 1.7 11.8 1.5l12.3-.3 1-5.5 1.1-5.5.6 5.3c.3 2.9.7 5.4.9 5.6.2.2 6.1-.1 13.2-.6l12.7-1.1-.1-4.1c0-2.3-.4-7.9-.8-12.6l-.8-8.4 3.6-5.1c4.4-5.9 5.4-7.5 4.7-7.5-.2 0-2.3 2.6-4.5 5.7-3.9 5.6-4.1 5.7-4.1 2.8 0-1.7-.3-4-.6-5.1-.5-2-.9-2.1-4.2-1.1-5.5 1.7-28.5 1.4-35.8-.4l-6.1-1.6-2.2 18.1zM220 376.6c-5.7 1.5-31.7 1.5-35.1 0-1.5-.6-1.8.7-2.5 11.4l-.9 12.1-5.5-4.1c-5.6-4.2-9-6.4-9-5.7 0 .2 3.3 2.7 7.4 5.6l7.3 5.2-.4 6.7c-.2 3.7-.7 11.8-1.1 18-.4 6.2-.6 11.5-.3 11.8.2.2 5.8.4 12.3.4H204l.1-7.8c.1-11 1.7-14 2-3.7.1 4.4.3 8.8.2 9.7 0 1.6 1.3 1.8 12.6 1.8h12.6l-.6-9.3c-.4-5-1-19.2-1.4-31.5-.8-25 .1-23-9.5-20.6zM485.1 458c-2.9 2.8-4.9 5.5-4.6 6 .7 1.1 16.3 1.4 18.9.4 1.2-.5 1.6-2 1.6-6V453h-5.3c-5.1 0-5.7.3-10.6 5zm35.9-.4c-7.4 7-7 7.7 4.9 7.2 5.5-.1 10.2-.6 10.6-.9.3-.4.3-3-.1-5.8l-.7-5.1h-4.9c-4.4 0-5.3.4-9.8 4.6zM279.5 456c-5.8 2.1-12.3 2.5-15.9.9-2.2-1-3.4-.8-8.3 1.7-11.1 5.6-7.1 7.8 13 7.1 15.6-.5 16.2-.8 17.3-7.5.7-4.7.8-4.7-6.1-2.2zm51.5-.1c0 3.2 2.1 7.9 3.8 8.6 2.6 1.1 23.4 1.8 28.6 1.1 6.4-1 5.8-3.2-1.7-7-4.9-2.5-6.2-2.7-8.3-1.7-3.7 1.7-9.4 1.3-15.9-.9-7-2.4-6.5-2.4-6.5-.1z"/></svg>