<svg version="1.0" xmlns="http://www.w3.org/2000/svg" width="10000" height="6666.667" viewBox="0 0 7500 5000"><path d="M4044.7 799c.5.8 20.5 28.3 44.3 61 23.9 32.7 60.2 82.7 80.9 111 57.5 79.1 67.3 92.4 68.1 93.3.6.7 47.2-49.2 47.7-51.1.1-.4-6-6.1-13.5-12.8-16.7-14.7-220.3-195.4-225.2-199.8-1.9-1.7-2.9-2.4-2.3-1.6zm15.3 4.3c.5.5 19.5 9.7 59.5 28.7 5.5 2.6 24.9 11.8 43 20.5 18.2 8.7 37.5 17.9 43 20.5 5.5 2.6 20.6 9.8 33.5 16 12.9 6.2 32.3 15.4 43 20.5 10.7 5.1 30.5 14.5 43.9 20.9 13.5 6.4 24.8 11.5 25.2 11.4 1.8-.6 16.8-18.2 16.2-18.9-.5-.3-5.5-2.5-11.3-4.7-5.8-2.2-60.9-23.7-122.5-47.7-193.5-75.5-174.2-68-173.5-67.2zm-478.4 376.8c-14.4 2.5-35.6 9.7-51.3 17.3-21.4 10.5-34.6 19.8-48.9 34.9-15.8 16.4-28.1 37.3-42.9 72.2-19.8 46.7-27.1 62.2-38.9 81.8-22.7 37.6-52.7 70.2-92.6 100.6-6.3 4.9-23.2 16.8-37.5 26.6-45.2 31-60.3 43.1-80.9 64.6-21.7 22.6-43.6 50.9-58.1 75.1-43.1 71.7-58 147-41.5 210.4 4.1 16.1 9 28.7 19 48.9 14.8 30.2 31.1 52.8 55.4 77.1 12.5 12.5 29.7 27.4 31.4 27.4.4 0 4.1-10 8.3-22.2l7.6-22.1-6.8-3c-3.8-1.7-6.9-3.5-6.9-3.9 0-1.3 12.7-34.5 22.8-59.8 42.5-106 77.5-170.9 114.9-212.5 29.7-33 63.6-51.1 105.8-56.4 5-.6 10.8-1.4 13-1.8 2.2-.3 25.1-.9 51-1.2l46.9-.6 1.3-6c2.7-13.3 8.4-48.6 12.2-75.5 3.1-22 7.1-52.2 7.1-53.6 0-.1-4-3.4-9-7.3-14.4-11.6-28.8-29.6-36.5-45.9-2.7-5.9-3.1-6.3-5.5-5.5-5 1.6-13.3.9-18.1-1.5-10.8-5.3-21.2-20.5-24-35-1.8-9.3-.8-19.9 2.5-26.6 5-10.3 12.8-13.8 24.4-11l6.9 1.7 6.4-3.4c7.6-4 21.5-17 30.4-28.4 17-21.7 37.6-59 54-97.6l5.8-13.6 7.2-.7c9.3-.8 26.9.8 37 3.5 26.9 7 47.4 24.5 61.9 52.9 5.6 10.9 11.4 26.4 13.6 36.2l1.3 5.8 3.8-.6c5.4-.9 8.4.1 13 4.3 12.8 11.5 16.6 39.9 7.9 57.8-3.4 7.2-6.4 10.2-11.7 12l-3.8 1.3-.7 9.7c-2.5 35-16.1 66.1-38.3 88-5 4.9-12.1 10.8-15.7 13l-6.6 4-1.2 6.5c-4.4 24.8-12.8 90.9-13.2 104.5l-.3 8 21 .6c31.6 1 54.4 4.8 81 13.6 11.5 3.8 33.6 12.6 46.6 18.6l7.7 3.5.6-3c2.3-11.8-.9-86-6.5-146.8-5.8-64.4-13.1-118.6-20.5-152.5-10.1-46.9-20.2-75.1-35.5-100.2-26.2-42.8-75.5-76.4-124.3-84.8-12.6-2.1-38-1.9-52 .6zm-207.1 754.2c-8.7 9.3-19.5 32.9-34 74.7-3.2 9.1-5.9 16.7-6.1 16.9-.2.2-2.4-.4-4.9-1.4-2.6-.9-4.8-1.5-5.1-1.3-1.4 1.5-21.2 46.4-20.6 46.9 2 1.9 32 7.8 50.7 10 14.8 1.8 47.6 1.5 61.8-.5 15-2.1 15-2.1 14.2-6-6.3-30.3-33-125.7-38.2-136.1-2.6-5.2-6.4-8.5-9.7-8.5-2.4 0-4.1 1.2-8.1 5.3zm1233.8 384.6c-5.4 3.9-13.4 14.1-31 39.3-27.4 39.3-33.5 42.2-29.8 14.3 2.6-19.9 1.1-28.6-5.3-30.2-5.1-1.2-7.4 4-16.6 37-2 7-6 18-9 24.5-8.7 18.9-12.3 32.1-13 48-.2 5-.9 9-1.8 10.4-.8 1.3-8.6 16.2-17.3 33.3-39.7 78-52.1 101.5-67 126.5-10.1 16.8-18 28.3-25.6 37.2-8.9 10.2-65.5 62.8-123.9 115.2-13.5 12.1-24.3 22.4-24.2 23 .2.6 3.7 12.7 7.8 26.9 13.2 46 22.1 84.1 24.3 104.6.6 5.1 1.2 9.6 1.5 9.8.6.6 146.9-164.4 181.3-204.5 35.4-41.1 58.5-87.9 93.8-189.7 3.6-10.5 7.2-20.9 8.1-23.2 3.3-8.9 19-19.1 68.6-44.4 30.4-15.5 44.4-23.7 45.5-26.6 2.1-5.5-11.5-6-34.8-1.3-8.4 1.7-15.4 2.9-15.6 2.6-.2-.2 5.6-5.2 12.9-11.2 22.9-18.6 35.7-31.6 37.9-38.2 1.1-3.2 1-3.7-1.1-5.4-5.3-4.3-13.4-1-34.9 14-18.9 13.3-26.1 16-26.1 9.9 0-3.7 4.2-11.1 18.4-32.5 23.2-35 28.6-49.5 19.8-53.1-7.7-3.2-17 5.8-38.8 37.4-11.9 17.3-17.8 24.5-20.1 24.5-2.9 0-.8-7 8.9-29 10.9-24.6 14.1-33.2 15.8-41.7 2-10.2-1.1-12.9-8.7-7.4z"/><path d="M3751 2348.5c-32.6 6-87.3 10.3-110.4 8.7-13.7-1-29.8.3-36.3 2.9-9 3.6-8.7 4.1 4.9 9.2 23.4 8.6 30.8 10.2 40.5 8.7 3.7-.6 11.1-1.1 16.3-1.1 7.6.1 11-.4 17.4-2.5 5.4-1.8 9.1-2.5 12.1-2.2 5.4.7 11.9 3.8 12.3 6 .8 4-22.9 13.3-42.5 16.7-6.5 1.1-16.4 1.9-24.8 2-15.5.1-25.5 1-25.5 2.1 0 1.4 9.4 1.8 27 1.3 16-.5 18.1-.8 24.5-3.3 3.9-1.5 9.7-3.1 13-3.5 3.2-.4 8.9-1.8 12.6-3.1 9.7-3.5 27.4-3.1 27.4.6 0 2-14.6 9.1-37.9 18.5l-18.9 7.6-25.8 3.2c-33.8 4.2-34.6 5.5-3.4 6l18 .3 5.1-2.8c2.8-1.5 7.5-3.5 10.5-4.4 3-.9 7.9-3.1 10.9-5 3.1-1.9 7.1-3.9 9-4.4 7.7-2.2 14.9-.4 13.4 3.3-.8 2.2-14.6 12.3-30.8 22.6-10.8 6.9-13.3 8.1-17 8.1-2.4 0-11.2.7-19.7 1.6-21.9 2.3-46.4 2.1-60.9-.5-28.3-5-55.9-16.3-89-36.3-11-6.7-27-14.8-29-14.8-.4 0-3.9 4.7-7.8 10.4-5.9 8.9-12.9 18.5-39.3 54.2l-3.7 5.1-9-2.3c-14.1-3.6-27.7-4.8-46.2-4.1-9.1.4-21 1.4-26.5 2.2-5.5.9-15.3 2-21.9 2.5-20 1.7-36.9 6.1-51.6 13.5-21.8 11-43.8 44.8-55.5 85.6-5.1 17.5-7.4 32.5-8.5 53.9-1 20.3-2.3 26.8-7.4 37.5-4.2 8.8-9.8 15.2-18 20.4-3.6 2.2-7.1 5-8 6.3-1.9 2.6-2.1 8-.5 11.1 1.7 3.3 14.2 17.3 22.8 25.5 19.7 19 53.6 35 89.4 42.3 5.5 1.1 10.1 1.9 10.2 1.7.2-.2.6-2.8 1-5.8l.7-5.5-3.9-1.4c-22.4-7.9-37-25.1-47.2-55.6-3.8-11.4-9.3-36.1-10.7-48.1-.7-5.4-.9-5.6-6-8.9-9.5-6.1-14.4-16.3-15.2-31.7-.5-10.8.5-16.2 4.5-24.5 4.9-10 14.7-16.4 22.8-14.9 3 .6 3.2.5 6.6-6.6 13.3-28.1 37.5-50.5 65.1-60.4 3.7-1.3 3.8-1.3 4.4 1.4.3 1.5 1.8 7 3.4 12.2 6.8 22.1 19.7 42 37 56.8 20.1 17.2 52.1 33.6 89.2 45.7 7.9 2.6 14.6 5.2 15 5.9 1.3 2 .9 14-.7 20.1-2.3 8.7-5.6 15.3-10.5 20.8s-10.1 8.5-16.6 9.4l-4.5.6-4.5 8.8c-7.9 15.8-16.1 27.5-27.7 39.6l-6.9 7.2.7 5.3c.4 2.9.8 6.4 1 7.8.2 1.4.7 5.4 1 9 .4 3.6.9 7.4 1.1 8.5.2 1.1 1.4 9.6 2.5 19 1.1 9.3 2.3 17.2 2.5 17.4.2.2 7 1.2 15.1 2.3 28.2 3.5 76.5 13.1 81.3 16 1.2.7 3.8 3.5 5.9 6.3 22 29.3 62.3 126.2 147.4 353.9l7.4 19.8.6-6.3c.3-3.5 4.5-58.5 9.3-122.1 4.9-63.7 9.2-115.4 9.6-115 1 1 137 321.3 137.5 323.9.4 1.6-1.5 4.7-7 11.5-10.8 13.6-10.5 13.3-22.7 14.6-23.8 2.5-51.2 12.5-56.5 20.6-2.2 3.3-.6 8.7 3.2 10.7 3.1 1.7 12.4 1.6 20.7-.1 5.4-1.1 6-1 7.8.8 2 1.9 2 2 0 6.4-1.1 2.5-4.5 7.5-7.7 11.3-14.6 17.2-23.5 32.6-24.3 42-.5 6.6.5 7 6.5 2.6 3.1-2.3 5.2-5.2 9.2-13.5 6-12.2 10.2-17.6 13.7-17.6 3.1 0 3.8 2.9 3.1 13.4-.4 6.2-.2 7.5.6 5.6 4.1-9.8 10.8-23 13.1-25.8 3-3.5 6-4.1 9.2-1.8 1.6 1.2 1.9 2.7 1.9 8.4v6.9l3.1-5.5c3.7-6.8 5.3-8 8.9-6.4 8.7 4 6.6 23.8-4.7 42.5-2.6 4.4-4.6 8.2-4.5 8.4.9.8 16.1-10.2 25-18.1 5.3-4.8 9.7-8.5 9.7-8.3 0 .3-3.2 11.4-7 24.8-9.1 31.4-19.4 71.8-21.4 83.9-5.4 33.1-15.7 164.3-28.6 364.5-6.7 104.8-9.2 146.6-8.8 147.1.4.4 93.4 2.4 113.3 2.4h11l3.9-17c2.2-9.3 4.2-17.4 4.6-18 .5-.7 2.1-.7 5.8.1 4.6.9 5.1 1.3 4.7 3.2-.2 1.2-1.1 7.1-2 13.2-2.4 16.1-9.1 49.2-12.6 62.5-6.3 23.7-12.1 35.1-23.3 46.6l-7.1 7.3-14-2.4c-15.8-2.7-18-3.2-39.5-8.5-19-4.8-31.2-8.9-40.9-14.1-4-2.2-7.5-3.8-7.7-3.6-1.5 1.4-8.2 32.4-8.4 38.2 0 1.1-.3 8.9-.6 17.2-.4 9.2-.2 15.3.3 15.3s3.2-.6 5.9-1.4c2.7-.8 12.9-2.8 22.6-4.6 9.7-1.7 20.5-3.9 24-4.8 6.1-1.7 7.1-1.7 22.1-.1 19.2 2.2 54.6 5.4 76.2 7.1 8.8.7 30.4 1.2 48 1.3h32.1l2.7 14.4c1.5 8 2.5 14.7 2.2 15-1.2 1.1-13.4 2-45.5 3.1-36.6 1.4-157.9.6-179.5-1-6.6-.5-22.6-1.3-35.5-1.6-15.9-.5-22.7-1-21-1.6 3.4-1.2 6-4.7 6-8.2 0-2.2-1.1-4-4.4-7-4.9-4.6-20.2-14-22.8-14-.9 0-1.4-.4-1.2-.8.5-.8-30.7-16.7-54.2-27.6l-13.1-6.1-28.9-.5c-15.9-.3-30.5-.8-32.4-1-1.9-.3-9.8-1.4-17.4-2.5-7.7-1.1-14.2-1.9-14.4-1.6-.3.2.5 4.4 1.8 9.2 1.2 4.8 2.4 12.2 2.7 16.3.6 8.2-1.2 21.4-3 22.8-.7.5-11.2.5-24.2.1-12.6-.4-42.1-.8-65.3-.8-23.3-.1-43.1-.5-44-1-1-.5-6.6-9.7-12.5-20.5l-10.8-19.6h-4.3c-7.5 0-21 8.8-18.9 12.3.3.7 4.6 6.9 9.5 13.9 4.8 6.9 8.8 12.9 8.8 13.2 0 .3-15.9.6-35.2.6-38.7 0-39.7.1-44.1 6.2-2.7 3.7-3.4 12-1.3 15.3l1.6 2.5h-90.2l2.6-3c4.8-5.8 5.8-15.7 1.8-19.3-4.3-3.9-34.2-10.3-99.2-21.1l-42.4-7.1-3.7-10c-7.3-20.1-15.2-32.5-20.9-32.5-5.4 0-15.7 5.7-18 10-.8 1.5.2 4.4 5.1 14.5 3.3 7 5.9 12.8 5.7 13-.2.2-12.9-1.4-28.3-3.6-31.6-4.5-38.2-4.9-42.7-2.2-6.6 3.9-8.9 14.8-4.6 22.4 2.7 4.9 7.4 6.9 26 11.4 40.4 9.7 120.8 22 175.3 26.8 2.2.2-80.4.4-183.5.5-173.2.1-187.3 0-184.5-1.5 1.7-.9 15.2-8.3 30-16.6 14.9-8.2 30.8-16.9 35.5-19.4 10.7-5.7 12.2-6.8 11.2-7.8-.4-.5-.1-.5.5-.1 1.6.9 9.6-3.7 8.6-4.9-.5-.4-.2-.5.5-.1 1.2.7 36.3-17.9 37-19.6.2-.4.8-.8 1.4-.8 1.9 0 28.8-15.2 28.8-16.3 0-.5.3-.8.6-.4.9.9 8.4-3.1 8.4-4.5 0-.6.2-.9.5-.6.3.3 2.9-.7 5.8-2.2 7.9-4.1 16.6-8.9 22.7-12.4 3-1.7 6.7-3.7 8.3-4.3 5-2.3 2.6-6-6-9.3-6.2-2.3-26.9-6.4-28.9-5.6-.8.3-1.4.2-1.4-.3 0-.8-17.5-2.8-33-3.7-5.2-.3-9.7-.7-9.8-.9-.2-.2-4.1 1-8.5 2.6-4.5 1.6-18 6.4-29.9 10.7-11.9 4.2-21.4 8.1-21.1 8.6.3.5.1.6-.4.3-1.1-.7-8 1.6-38.8 12.6-9.9 3.6-27.7 9.9-39.5 14.1-25.5 9-27.4 10-30 14.1-2.7 4.3-2.5 7.2 1.1 21.1 6.7 26 13.9 44.3 17 43.6.8-.2 1.1 0 .7.4-.4.4-.3 1.3.3 2.1 1 1.1-18 1.3-115.4 1.3h-116.6l-4.7-5c-5.5-5.9-25.7-22.8-40-33.6-5.5-4.1-10.3-7.7-10.9-8.2-4.5-3.6-16.1-11.2-17.2-11.2-.7 0-1.3-.5-1.3-1.1 0-.6-.9-.9-2-.6-1.1.3-2 .1-2-.3 0-.5-2.7-.7-5.9-.7-3.3.1-5.8 0-5.6-.3.3-.5-15-2.2-109.5-12.2-39.3-4.1-52.7-3.1-56.4 4.1-2 3.8-6.2 18.4-7.7 26.6-1.4 8-1.8 25.8-.6 35.8l.8 6.7-32.3-.1c-20.7 0-31.5-.4-30-.9 1.9-.8 2.1-1.3 1.2-3-3.3-6.1-33.5-22.4-59.3-31.9-20.5-7.6-21.5-7.8-29-5.9-25.6 6.9-63 7.5-102.7 1.7-13.7-2-29.1-4.6-32.2-5.5-1.3-.4-2.2 1-4.2 7.3-5.8 18.4-7.2 32.7-3.6 36.3l2 2h-383.5l-.1-11.3c0-9.5-3.5-35.1-4.9-36.5-.2-.2-5.2.2-11.2.8-18.3 2-43.2-.6-94.8-10.1-14.8-2.7-28.7-4.9-30.8-4.9-4 0-8.1 2-42.2 20.5-20.9 11.3-31.8 16.8-36.7 18.4-3.7 1.2-3.8 1.2-10.4-4.5-13.8-11.6-34.8-23.9-53.2-31.1l-9.4-3.6-12.2 2.2c-21.3 3.7-24.8 4.2-40.1 4.7-12.6.5-16.5.3-24.6-1.4-16.5-3.4-36.9-12.7-50.8-23.1-3-2.3-5.7-4.1-6-4.1-1.2 0-11.7 17.6-17.9 29.8-8.5 17-11.5 26.5-11.6 36.9-.1 10 1.6 12.9 9 15.5 4.7 1.6 1.5 1.7-76.3 1.8h-81.2l-2.4-5.3c-5.8-12.3-24.2-29.3-49.9-46.1l-11.7-7.6-12.8-.5c-52.7-2.3-74.5-10.7-103.5-39.7l-10.6-10.7-9.9 11.1c-20.2 22.8-31 40.6-32 53-.8 9.2.8 11.8 10 16.2 9.1 4.4 22 8.7 41.7 13.7 16 4.1 53.1 11.8 68 14.1 7.3 1.1-15.9 1.4-159.5 1.8-167.9.5-168 .5-172 2.6-12.5 6.5-12.5 24.3 0 30.8l4 2.1h6483l4-2.1c12.5-6.5 12.5-24.3 0-30.8-3.8-2-6-2.1-37.6-2.6l-33.6-.5-2.6-3.1c-1.9-2.2-4.4-3.6-8.7-4.8-8.7-2.5-14-5-41.6-19.9-13.7-7.4-28.2-15.1-32.3-17.1-8.7-4.4-5.4-4.6-44.1 2.4-41.8 7.7-55 9.3-75.5 9.4-9.9.1-20.1-.3-22.6-.7l-4.6-.8-2.1 12.8c-1.2 7-2.4 14.9-2.8 17.5l-.6 4.8h-378.7l-.6-3.8c-1.1-6.5-4.7-20.6-6.2-24.5-1.7-4.3-1.3-4.2-11.7-2.2-16.4 3.2-42.8 6.5-59.3 7.5-25 1.5-45.7-.1-66-5.2l-8.2-2-6.8 2.2c-19.7 6.5-43.2 16.4-55.5 23.5l-7.7 4.5h-532.4l2.7-2.1c1.4-1.1 2.6-2.9 2.6-3.9 0-6.3-21.7-20.3-64.5-41.7l-19-9.5-68.5-9.2-68.5-9.3-1.8 2.1c-3.5 4.1-11.8 18.8-16.7 29.6-8 17.6-10.3 25.2-10.4 35.2l-.1 8.8h-442c-267.5 0-444.6.4-448.5 1-31.7 4.5-205.9 4.5-238 0-3.6-.5-45.6-1-93.5-1-74.9-.1-86.6-.3-83.8-1.5 5.5-2.4 6.9-8.1 3.2-12.9-2.3-2.9-16.9-13.2-16.9-11.9 0 .4-.4.3-.8-.3-.8-1.3-9.4-5.9-10.4-5.6-.5.1-.8-.2-.8-.7 0-.9-6-3.7-7.2-3.3-.5.1-.8-.3-.8-.9 0-.5-.4-.8-.9-.5-.5.4-1.1.3-1.3-.2-.6-1.5-12.8-7.3-14-6.6-.6.4-.8.3-.5-.3.4-.6-.7-1.6-2.3-2.3-3.3-1.4-3.3-1.4-5.4-14.5-3.1-18.9-3.1-18.6 1.8-36.2 2.4-8.9 9.5-32.7 15.7-52.8l11.3-36.7 5.5.6c13.9 1.5 34.6 2.7 58.1 3.2 36.1.9 66.9-1.3 115.9-8.1 13.5-1.9 24.7-3.3 24.9-3 .4.4 6.9 71.2 9.2 100.1 1.3 16.4.8 21.9-4.5 50.9-1.3 7.1-2.2 13.2-1.9 13.5 1.3 1.3 66 .3 86.4-1.4 19-1.5 58.8-5.3 77-7.4l6.5-.7-10-2.9c-14.2-4-29.4-10.1-36.2-14.5-11.6-7.5-19.7-19.3-25.6-37.6-5.5-16.8-7.9-41.7-8.1-85.8-.1-25.2.2-30.9 1.3-31.6.7-.5 5.2-1.6 10-2.6 22.6-4.4 112.1-24.9 126.7-29.1 2-.5 1.8-1.4-5.8-20.7-34.2-86.7-63.6-180.3-76.8-244.1-12.1-58.6-25.7-166.3-37.5-295.6-1.4-15.1-2.5-28.2-2.5-29.1 0-1.3-1.9-1-11.2 2.2-26.7 8.9-68.7 15.9-135.8 22.6-22.2 2.2-86.1 2.5-104.5.5-38.7-4.3-71.7-13-97.2-25.7-7-3.5-14.1-7.4-15.6-8.7l-2.8-2.3 7-37.5c9.6-51.8 17.7-97.9 20-114.5 5.6-39.1 9-112.2 11.1-236 .7-45.8 1.1-54.9 3-67 3.4-23 9-42.2 15.9-55.3l3.1-5.7-5.2 5.5c-13.9 14.9-18.7 26.1-32.3 76.9l-6.9 25.4-6.3-24.4c-13.9-53.5-32.7-120.6-46.3-165.4-3.3-11-13.1-43.4-21.6-72-43.6-145.6-90.6-299.5-93.7-306.2-1.2-2.7-.8-2.7-16.7.2z"/><path d="M4142.5 2367.5c-24.5 4-45.9 15-56.6 29.2-2.3 3.2-4.6 6.2-5 6.6-.3.5-1.6-1.2-2.8-3.7-5.3-10.8-20.6-21.5-35.6-24.7-9.2-2-29.1-1.5-41.5 1-13.6 2.8-34.6 9.9-45.2 15.1-29.6 14.8-45.1 40.2-45.2 74.1v11.7l-8.1 3.6c-36.9 16.6-54.9 47.3-50.6 86.1 3.5 31.3 13.9 49.9 29.9 53.7l4.8 1.2-1.4 7.5c-1.8 9.7-2 36.6-.3 45.1 3.8 20 11.1 34.2 23 45.2 10.1 9.4 23.1 15.6 44.1 21 9.1 2.4 14.5 3.1 25.6 3.5 16.6.7 25.4-.9 35-6l6.1-3.3 2.8 5.3c8.8 17 24.4 31 42.5 38.4l7.7 3.2.6 13.1c.8 20 5.2 29.7 16.9 37.5 13.1 8.8 33.5 8.8 51 0 7.9-4 18.7-14.4 22.7-21.8 4.6-8.7 5.4-14.2 3.6-26.8-.8-5.9-1.5-11.4-1.5-12.2 0-1 3.3-3.3 8.5-5.9 18.6-9.5 34.3-23.2 42.6-37.2 4.9-8.4 8.9-21 8.9-28.4v-5.1l9.8-.1c11.7 0 20-2.6 32-10 19.4-12 44.3-43.4 56.8-71.5 15-33.9 14.6-63.5-1.3-90.2-9-15.2-23.7-28.3-50.6-45.2-1.4-.9-1.5-2-.6-9 .6-4.4.8-12.7.5-18.5-2.3-40.4-23.4-67.8-60.1-78.1-18.6-5.2-51.2-7.3-69-4.4zm-1766 37.5c-33.2 1.9-61.8 8.8-81.3 19.7-3.5 1.9-9.5 6.5-13.4 10.1-21.7 20.4-32.3 50.9-33.5 95.7-1.1 40.2 6.1 71.8 24.3 107.5 15.8 30.9 34.4 51.4 62.3 68.7 5.5 3.5 10.3 6.3 10.6 6.3.3 0 .5-2.7.5-6 0-5.9-.1-6.2-7.1-15.2-3.9-5.1-8.9-13.1-11.2-17.9l-4.1-8.5h-6.5c-7.8 0-12.6-2.1-19-8.5-8-8-12.8-19.1-13.8-32-1.4-17.6 7.5-30.9 20.5-30.9h3.7l.1-12.8c.2-38.1 12-66.1 39.3-93.2 15.2-15 26.4-21.7 45.1-26.7 9.2-2.4 33.4-2.4 45 .1 24.1 5.2 40.7 14.1 55.4 29.7 13.3 14.1 22.6 30.8 29.7 53l4 12.7 3.8.6c2.1.3 5.4 1.7 7.5 3.1 2 1.4 3.9 2.5 4.1 2.5.9 0 .4-10.7-1-21.2-2.3-17.3-11.4-62.4-14.7-72.7-5.2-16.5-10.9-26.3-21.3-36.6-7.2-7.3-10.8-10-18-13.7-20-10.2-38.5-13.8-73-14.3-13.2-.2-30.3 0-38 .5zm-424.5 29.6c-13.1 1.5-20.4 2.9-26.5 4.8-6.4 2-7.5 2.1-12.5.9-7.7-1.9-26.1-1.8-33.5.2-8.8 2.3-21.2 8.5-27.8 14-8.2 6.7-15.1 15.4-24.1 30.4-10.1 17-14.3 26.9-17.1 40.7-4.2 20.3-12.1 31.5-28.3 40.4-4.5 2.5-11.8 6.5-16.1 8.9-9.8 5.4-16.6 11.8-20 19.1-2.1 4.5-2.6 7.4-2.9 16.2-.8 21.2 5.5 39.4 15.9 46.1 2.8 1.8 2.8 2 1.3 4.8-3.1 6-5.4 18-5.4 27.8 0 20.9 7.8 37 26.6 55.1 21.9 21.1 50 33.6 77.7 34.6 10.2.4 12.5.8 16.9 3 7.4 3.7 7.8 3.3 7.8-8.8 0-14.8-.1-14.4 8.3-15.8 15-2.5 33.7-9.7 46.6-18 8.5-5.4 23.1-19.8 27.8-27.4l2.9-4.6 4 45.3 3.9 45.2 3.5-.3c4.8-.3 30.6-7.4 46.7-12.8 11.7-3.9 14.4-4.4 22.1-4.4 20.7 0 47-12.7 64.9-31.3 13.8-14.4 18.5-25.2 18.2-41.7-.1-8.9.1-9.8 2.6-13.5 9.2-13.6 14.5-29.2 14.5-43 0-16.5-4.5-26.5-18.4-41.4-22.6-24.4-33.7-43.9-52.4-92.1-13.9-35.8-16-40.6-20.7-47.4-11-16.1-33-27.8-61.5-32.7-10.9-1.9-37.3-3.2-45-2.3zm-14.2 38.4c26.9 7.6 46.5 28.4 58.1 61.4 2.8 7.9 7.5 28.2 8.3 36 .3 2.7.8 3.1 5.3 4.2 5.9 1.5 10.8 6.3 12.4 12.1 1.6 5.6 1.3 18.8-.5 26.2-3.3 13.4-11.8 27.4-18.2 30-2.5 1.1-3.4 2.4-5.7 9.4-6.3 18.7-14.4 32.8-26.3 46.5-11.1 12.5-25 21.3-44.7 28.2-32.6 11.4-56.6 6.5-77.5-15.7-17.4-18.4-28.5-42.1-33.7-71.9-2.3-13.4-2.3-47.4 0-62.7 4-26.4 9.6-45.4 18.9-64.7 5.3-11 6.9-13.4 13.7-20 12.2-12 27.8-18.9 47.4-21 13.6-1.4 34.1-.5 42.5 2zm4311.2-23.4c-27.2 4.1-47.3 13.3-60.7 27.7-6.2 6.7-7 8.1-17.8 31.7-7.4 16.1-14.4 29.3-33 62.5-30.7 54.5-43 79.2-57.5 115.5-39.6 99.3-44.3 184.2-13.4 243l4.5 8.4-1.1 12.6c-3.2 37.7-3.2 90.7 0 118 .5 4.7 1 8.6 1 8.7 0 .2 4.9.3 11 .3h10.9l.5 3.2c.3 1.8 1.3 9.8 2.2 17.8 9.5 87.4 37.2 202.6 50.8 211.5 1.7 1.2 5.7 1.9 12.6 2.2l10 .6v-26l12.3-6.1c6.7-3.3 14.1-7.4 16.5-9.1l4.3-3.2-7.1-7.7c-13.7-14.7-22.1-27.1-29.2-42.7-16.4-36.4-26.9-91.4-31.8-168-2.9-44.8-2.1-141.1 1.5-164.6 4.4-29.3 15.7-45.7 35-50.9l6.4-1.7 7.5 16.6c30.5 67.7 45.2 114 52.1 165.1 2.3 16.2 3.1 53.4 1.6 69-1.2 12.4-1.2 12.8 2.3 35.3 6.9 43.4 11.3 60.3 17.6 67.1 2.1 2.2 4 3.9 4.3 3.6.2-.3 2.2-5.2 4.5-11 20.5-52.9 24.9-107.7 14.7-179.5-7.2-50.5-24.2-113.4-44.3-164.5l-5-12.5 6.7-1.1c3.6-.6 10.5-1.7 15.4-2.4 7.6-1.1 8.8-1.5 9.1-3.4.3-1.1 2.1-21.2 4.1-44.6 2-23.4 3.8-44.4 4.2-46.7l.5-4.3 4.8 6.8c6.2 8.7 17.7 19.7 26.7 25.6 12.4 8 31.5 15.2 46.6 17.6l7.7 1.3v7.1c.1 9.1 1.7 25.6 3 30.5.8 3 1.6 4 3.8 4.4 2.7.6 2.8.7 7 21.4 21.9 106.4 51.3 206.4 78.6 267.1 2.5 5.6 4.6 10.4 4.6 10.7 0 .3-34.8.5-77.4.5-47.9 0-78.4.4-80 1-1.4.5-3.5 2.4-4.6 4.2-3.8 6.3-2 12.6 4.5 15.8 4 1.9 6 2 72.7 2h68.5l8.3 10.2c4.6 5.7 11 13.8 14.4 18l6.1 7.8h23.5l-14.5-18-14.6-18 40.3-.2c39-.3 40.2-.4 37.1-2.1-2.9-1.5-6.9-1.7-42.2-1.7h-38.9l-3.2-4.1c-1.8-2.2-5.6-5.3-8.4-6.9-5-2.9-5.5-3-18.7-3-11.9 0-13.8.2-15.2 1.8-1 1-1.7 2.6-1.7 3.5 0 1.5 1.3 1.7 9.8 1.7h9.7l2.8 3.5 2.8 3.5H6372c-39.2 0-64.8-.4-65.9-1-3.1-1.6-4.6-6.5-3.1-10 .7-1.7 2.1-3.5 3.1-4 1.1-.6 44.9-1 116.3-1 89.5 0 115.1-.3 117.3-1.3 2.3-1-.6-1.3-19.2-1.7l-22-.5-8.8-29c-46.3-152.6-76.3-260.2-74.1-265.9.5-1.2 4.8-3 34.3-14.2 10.7-4.1 19.6-7.6 19.8-7.8 1.8-1.7 2.8-18.8 2.7-45.1 0-29.6-.1-30.4-4.2-60.5-11.4-82.4-16.5-105.6-28.4-127.8-5-9.4-6.4-13.3-8.3-22.5-2.7-13-4.8-18.8-11.4-31.2-11.9-22.2-24-37.3-36.8-45.6-14.1-9.2-34.3-12.9-52-9.6-7.7 1.5-8.4 1.5-14.5-.4-15.4-4.9-47.2-6.4-67.8-3.3zm110.8 36.4c16 3.9 29.8 12.2 39 23.3 13.2 16.1 25.4 52.9 29.2 88.5 1.8 15.9.7 47.7-1.9 60.2-4.1 19.3-8.9 32.1-17.5 46.6-18 30.3-42.6 44.9-70.3 41.5-18.7-2.3-42.8-12.2-57.1-23.7-15.9-12.7-29.5-33.3-36.8-55.8-2.4-7.4-3-8.3-7-10.8-14.5-9-24.1-43.5-16.5-59.2 2.5-5.1 8.8-9.6 13.3-9.6 2.3 0 2.6-.5 3.3-4.8 7.8-54.4 33-89.1 71.1-97.6 10-2.3 39.7-1.5 51.2 1.4zm-1036.6 266.8c-3.5 1.1-12.7 10.8-18.9 20.2-17.9 26.7-34.7 68-65.1 159l-16.5 49.5-6.2 36c-3.4 19.8-6.2 36.1-6.1 36.2.1.1 36.9-64.5 81.7-143.7l81.4-144 3 .6c1.7.3 3.7.7 4.6 1 1.2.3 1.9-1.1 3.1-6.8.9-4 1.4-7.5 1.3-7.6-.6-.6-11.8 2.9-17.8 5.5l-5.8 2.6-11.7-3.7c-9.7-3-22.2-5.9-24.2-5.5-.3.1-1.5.4-2.8.7zm-4317.7 3.1c-8.7 1.8-13.1 3.8-23.1 10.5l-6.4 4.3 4.5 1.7c9 3.5 20.6 16.9 28.9 33.3 13.5 27 25 68.4 29.8 107.3 1.9 15.8 1.6 60.3-.6 76-5.4 39.6-16.7 73.4-32.1 96.5-4.3 6.5-5.4 8.9-5 11.1.8 5 1.4 16.3 2.1 35.4.4 10.2.8 19.6.9 21 .2 1.4.3 4.4.4 6.8l.1 4.3 8.3-6.2c17.3-13.1 35.7-33.3 46.1-50.6 5.9-9.9 12.3-24.3 15.5-35 11.1-37.4 14.3-111.2 7-161.6-8.2-57.3-27.9-109.4-56-148.3-6.9-9.6-6.4-9.4-20.4-6.5zm4489.7 18.3l.3 14.3 10 1.7c5.5 1 11 2 12.1 2.3l2.2.5-.1 68.2c0 37.6.3 75.5.7 84.3 3.9 91.8 8.4 118.2 26.3 152.6 8.3 16.1 22.7 34 33.2 41.1l2.3 1.6-5.5 25.4c-3.1 13.9-7.2 32.9-9.2 42.3-2 9.3-4.7 22.2-6 28.5-1.4 6.3-2.8 13.5-3.1 15.8l-.7 4.4 5.9-.7c9.3-1 18.4-4.1 25.1-8.5 22.1-14.5 42.8-53.4 66.8-125.5 19.6-59.1 27.6-100.2 30-155.3.2-6.7.1-12.2-.3-12.2-1.1 0-37.4 35.9-51.4 50.8-21.3 22.7-24.6 28.1-30.9 51.2l-2.3 8.5-3.3-30.5c-9.7-90.6-20.9-208.3-21.5-224.9l-.3-8.4 22.7-12.6c12.8-7 22.2-12.8 21.5-13.2-1.5-.8-21.1-4.4-34.7-6.3-23-3.3-79.7-9.6-86.8-9.6h-3.3l.3 14.2zm-4333.8 9.5c.3 1 9.6 34.2 20.6 73.8 11 39.6 31.1 111.9 44.7 160.7 13.6 48.8 24.8 88.6 25 88.4.8-.8-7.6-77-11.8-106.6-4.6-32.3-14.9-77.3-27.5-120-6.5-22.3-21.7-67.8-27.7-83.4l-3.5-8.9-9.3-2.9c-11.1-3.3-11.2-3.3-10.5-1.1zm-304.4 248c0 .5-1.6 21.4-3.5 46.3-3.9 51.7-8 108.4-9.5 133.7-.9 14.3-.8 17.8.3 20.6 3.1 7.3 15.6 14.4 35.2 20 6.6 1.9 13.6 3.7 15.6 4.1l3.6.6 6.8-22.6c4.9-16.7 6.6-23.7 6.2-26.3-.3-2-1.9-11.7-3.6-21.6-5.8-34.5-6.1-38.6-6.1-93.5v-50.6l-14.7-1.8c-8.1-.9-15.1-2-15.5-2.2-.4-.3-.8-1.8-.8-3.5 0-2.4-.4-2.9-2.4-2.9-1.3 0-4.4-.3-7-.6-2.6-.4-4.6-.3-4.6.3zm843.6 54.8c1.6 1.2 17.8 1.4 117.4 1.5 127.9 0 118.7-.5 121 6.6 1.4 4.2.6 8.1-2.2 11.1l-2.1 2.3h-115.3c-107.8 0-115.5.1-118.8 1.7l-3.6 1.8V3255l2.3.4c1.2.3 6.5 1.2 11.7 2.2 5.2.9 16.2 3.2 24.3 5 13.5 3.1 15.1 3.3 17 1.9 1.2-.8 1.7-1.5 1.2-1.5s0-.6 1.1-1.4c1.8-1.4 1.8-1.6.1-4.8-2.6-4.9-10.5-13-11.9-12.2-.6.4-.8.3-.5-.3.3-.5-.6-2.7-2-4.8-3.6-5.2-3.7-11.4-.4-14.9 2-2.1 3.4-2.6 7-2.6 7.9 0 13.7 4 46.5 32.3 17.6 15.2 32 24.8 34.7 23.1.8-.4.9-.3.5.4-.5.9.6 1.2 3.6 1.2 6.5 0 20.3-7 43.3-21.9 12.5-8.1 62.2-44.6 65.5-48.1.3-.3 2.6-2.1 5.2-4l4.8-3.5-.3-54.2c-.2-53.2-.2-54.2-2.3-57-1.1-1.5-3.2-3.4-4.5-4-1.9-1-29.3-1.3-123.8-1.3-106.6 0-121.2.2-119.5 1.5zM3491 3120c0 .3 1.3 19.6 3 43 5 72 6.9 99.5 22 318.5 3.8 55.5 7.2 103.8 7.6 107.3l.6 6.3-6.4 2.8c-3.5 1.6-13.8 5.7-23 9.1l-16.6 6.3.4 5.1c.2 2.8 1.8 33 3.5 67.1 1.6 34.1 3.4 63.3 3.9 65 1.5 4.7 4.8 21.1 6.5 31.8 5.1 31.9 7.2 76.3 5.6 116.8-.6 15.6-1.4 31.5-1.7 35.4-1.2 16.1-3.5 41.8-4.3 47.9l-.7 6.6h25.3l5.2-32.3c2.9-17.7 26.3-162.7 52-322.2l46.7-290-7.6-9c-38.5-45.2-77.2-112.1-113.1-195.5-4.9-11.3-8.9-20.3-8.9-20zm-1544.5 203.3c-28.6 15.7-80.5 30.1-120.5 33.6-26.5 2.3-69.7-.9-97.4-7.3-3.5-.9-7.5-1.7-8.7-2-5.4-1.1-17.3-4.8-20-6.2l-2.9-1.5V3447h254v-63c0-34.7-.2-63-.3-62.9-.1 0-2 1-4.2 2.2zm-690.3 24c-4 4.8-31.8 16-52.6 21.3-29.1 7.4-72.3 13.9-108.4 16.3-7.3.5-13.5 1-13.7 1.2-.2.2-.1 3.1.2 6.5l.5 6 7.2 3.7c9.4 4.8 16.4 11.1 22.4 20 7.6 11.4 9.2 20.9 3.8 22.3-3 .7-7.5-1.2-15.8-6.9-7.6-5.2-10.1-6-10.6-3.4-.5 2.5 3.2 7 19.8 24.2 21.5 22.2 28.5 33 25.9 40.4-1.5 4.4-5.1 5.8-23.1 9.2-3.7.7-7.5 2.3-10.5 4.4-2.7 1.9-6 4.3-7.6 5.2-2.6 1.7-2.7 2.2-2.2 6.8.3 2.7 8.2 118.6 17.5 257.5 9.4 138.9 17.3 254.4 17.6 256.7l.5 4.3h100.8l.5-3.3c.3-1.7.8-7.7 1.1-13.2.3-5.5 1.9-31.2 3.5-57 11.9-188.4 20.3-351.1 25-480.5 1.4-38.1 2.5-134.6 1.6-139.3-.7-3.9-1.6-4.6-3.4-2.4zm1344.3 39.8c-14.7 4.5-69.3 14.8-95.6 17.9l-9.6 1.2-24.2 54.7-24.3 54.6-6.4 26.3-6.4 26.3 57.6 120.2c59.4 123.8 158.5 323.7 160.6 323.7 1.8 0 22.7-8.5 43.3-17.7 32.7-14.5 58.4-28.7 68.9-37.9l2.9-2.5-42.7-149.7c-35.5-124.9-117.6-416.4-117.6-417.8 0-.6-3.2-.3-6.5.7zm1889.1 273c-8 1.1-14.4 4.3-15.2 7.6-.9 3.5 4.3 13.3 12.3 23.3 7.6 9.5 39.9 42.3 56.8 57.7 34.7 31.6 86.7 73.3 98.2 78.8 3.1 1.5 3.6 1.5 7.5-.3 7.8-3.4 17.1-15.6 26.7-34.9 6.2-12.4 10.9-24.1 11.7-29.1l.6-3.8-54.5-43c-30-23.6-56-43.4-57.9-44-7.2-2.5-35.6-8.6-48.1-10.4-17.2-2.4-29.5-3-38.1-1.9z"/></svg>